<?xml version="1.0" encoding="UTF-8" standalone="no"?>
<svg
   height="512"
   style="zoom: 1;"
   id="notes"
   xml:space="preserve"
   width="512"
   version="1.1"
   viewBox="0 0 512 512"
   sodipodi:docname="Notes-as.svg"
   inkscape:version="1.3.2 (091e20e, 2023-11-25)"
   xmlns:inkscape="http://www.inkscape.org/namespaces/inkscape"
   xmlns:sodipodi="http://sodipodi.sourceforge.net/DTD/sodipodi-0.dtd"
   xmlns="http://www.w3.org/2000/svg"
   xmlns:svg="http://www.w3.org/2000/svg"><defs
     id="defs13" /><sodipodi:namedview
     id="namedview13"
     pagecolor="#ffffff"
     bordercolor="#000000"
     borderopacity="0.25"
     inkscape:showpageshadow="2"
     inkscape:pageopacity="0.0"
     inkscape:pagecheckerboard="0"
     inkscape:deskcolor="#d1d1d1"
     inkscape:zoom="0.84676571"
     inkscape:cx="213.75452"
     inkscape:cy="312.95552"
     inkscape:window-width="1312"
     inkscape:window-height="763"
     inkscape:window-x="0"
     inkscape:window-y="25"
     inkscape:window-maximized="0"
     inkscape:current-layer="notes" /><g
     id="g1"><path
       d="m 124.40884,208.75849 272.0645,-0.53701 c 0.54193,141.5911 6.55553,147.78871 -16.25886,162.71341 H 140.66767 c -24.57452,-11.93123 -14.63294,-26.67141 -16.25883,-162.1764 z"
       id="path1"
       fill="#eeeeee"
       style="stroke-width:1.17678" /><path
       d="m 124.52655,208.64574 c -0.85749,-45.29241 -0.2332,-60.13879 22.1027,-60.03214 l 228.70757,0.537 c 22.97429,0.15827 21.69386,19.91195 21.13196,59.07088 z"
       id="path2"
       fill="#646577"
       style="stroke-width:1.17678" /><path
       d="m 163.02876,137.81059 c 5.20168,-11.88476 17.89854,-8.2746 21.26333,-0.1954 l 0.14067,37.77226 c -1.3003,8.6454 -16.78832,13.82361 -21.33367,-0.47416 z"
       id="path3"
       stroke="#eeeeee"
       stroke-width="5.88392"
       fill="#636576" /><path
       d="m 335.25933,137.81059 c 5.20167,-11.88476 17.89854,-8.2746 21.26332,-0.1954 l 0.14068,37.77226 c -1.30028,8.6454 -16.78834,13.82361 -21.33366,-0.47416 z"
       id="path4"
       stroke="#eeeeee"
       stroke-width="5.88392"
       fill="#636576" /><path
       d="m 245.56121,312.47657 31.69074,-0.1764 -7.22345,-30.35476 c 19.45118,-12.91737 7.03572,-34.52915 -8.80012,-34.42043 -14.93884,0.10249 -28.01787,20.80344 -8.70329,34.05277 z"
       id="path5"
       fill="#1d203a"
       style="stroke-width:1.17678" /></g><g
     id="g2"
     transform="matrix(0.41210778,0,0,0.41210778,257.28105,327.18115)"><path
       d="m 181.48368,267.5455 29.15117,12.75583 c -18.85821,40.44319 -10.89487,32.26643 -49.75676,33.03436 z"
       id="path7" /><path
       d="m 196.57071,230.58628 44.15482,-19.62436 31.72606,-70.64772 c -0.64105,-2.98343 -31.56787,-6.10792 -35.65093,2.28951 z"
       id="path8" /><path
       d="m 314.57849,229.86665 -42.76485,-18.82305 -15.634,-34.34264 16.27195,-36.38676 c 4.24774,1.34076 28.23177,59.75069 42.1269,89.55245 z"
       id="path9"
       fill="#477ebe" /><path
       d="m 301.793,280.30133 29.2046,-13.08291 20.18338,46.11725 c -35.58445,-2.8242 -31.45627,10.8451 -49.38798,-33.03434 z"
       id="path10"
       fill="#477fbe" /><path
       d="m 186.71709,248.18297 0.23195,8.58202 43.60598,19.71547 0.92778,-10.9015 -29.68917,-13.4529 28.52944,-12.75707 0.46389,-11.13345 z"
       id="path11" /><path
       d="m 280.88745,228.0036 0.4639,12.06123 28.52944,12.06123 -29.22529,12.98901 0.23195,11.59734 43.83792,-19.94742 0.4639,-8.81397 z"
       id="path12" /><path
       d="m 260.01225,216.17432 15.07653,0.23194 -25.51414,73.52711 h -15.54042 z"
       id="path13"
       fill="#4780be" /><path
       d="m 157.87825,408.87131 v -6.99069 l -0.52267,-1.50267 v -12.2827 q 0,-3.39734 -2.09067,-5.29201 -2.09068,-1.96001 -6.33735,-1.96001 -2.87468,0 -5.61868,0.91467 -2.74401,0.91467 -4.70402,2.48268 l -3.39734,-6.53335 q 2.80934,-2.15601 6.79469,-3.20135 3.98534,-1.11067 8.16668,-1.11067 7.77469,0 12.0867,3.72401 4.31201,3.65868 4.31201,11.4987 v 20.25339 z m -10.78003,0.45733 q -4.05068,0 -6.99069,-1.372 -2.94,-1.37201 -4.50801,-3.72401 -1.568,-2.41734 -1.568,-5.42268 0,-3.07068 1.43733,-5.35735 1.50268,-2.35201 4.76935,-3.72401 3.26668,-1.372 8.55869,-1.372 h 9.73469 v 5.68401 h -8.88535 q -3.85468,0 -5.22669,1.24134 -1.372,1.24134 -1.372,3.13601 0,2.09067 1.63334,3.33201 1.63334,1.176 4.50801,1.176 2.80934,0 4.96535,-1.24134 2.22134,-1.30667 3.20134,-3.78934 l 1.43734,4.76934 q -1.11067,3.20135 -4.11601,4.96535 -2.94001,1.69867 -7.57869,1.69867 z m 36.84806,-7.90535 0.196,-11.43337 17.31338,-16.13737 h 11.04137 l -15.68005,15.74537 -4.76934,3.98535 z m -7.57868,7.44802 v -48.47746 h 9.21202 v 48.47746 z m 26.26407,0 -12.2827,-15.22271 5.74935,-7.25202 17.70538,22.47473 z"
       id="text8"
       style="font-size:65.3335px;font-family:Montserrat;-inkscape-font-specification:'Montserrat, @wght=652';font-variation-settings:'wght' 652;fill:#373d43;stroke-width:3.36381"
       transform="scale(1.0312527,0.96969444)"
       aria-label="ak" /><path
       d="m 210.9312,390.52014 -0.60731,-17.06532 h 7.34841 l -0.6073,17.06532 z m 25.0818,25.87128 q -4.12969,0 -7.95572,-1.03242 -3.76531,-1.03242 -6.01234,-2.48996 l 3.09726,-6.31599 q 2.18631,1.39681 5.22284,2.30777 3.09727,0.85023 6.07307,0.85023 3.46165,0 4.91919,-0.85023 1.45754,-0.91096 1.45754,-2.42923 0,-1.21462 -1.09315,-1.82192 -1.03243,-0.66804 -2.79362,-0.97169 -1.76119,-0.36439 -3.88676,-0.66804 -2.12558,-0.30366 -4.25115,-0.7895 -2.12558,-0.54658 -3.9475,-1.51827 -1.76119,-1.03242 -2.85434,-2.79361 -1.03242,-1.76119 -1.03242,-4.5548 0,-3.03654 1.76119,-5.3443 1.82192,-2.3685 5.10138,-3.64385 3.27946,-1.33607 7.83426,-1.33607 3.34019,0 6.74111,0.72877 3.40092,0.72876 5.64795,2.06484 l -3.03653,6.31599 q -2.3685,-1.3968 -4.737,-1.88265 -2.3685,-0.54658 -4.61553,-0.54658 -3.34019,0 -4.91919,0.9717 -1.51827,0.91096 -1.51827,2.36849 0,1.27535 1.03243,1.94339 1.09315,0.66803 2.85434,1.09315 1.76119,0.36438 3.88676,0.66804 2.12558,0.30365 4.25115,0.85023 2.12558,0.48584 3.88677,1.45753 1.82192,0.97169 2.85434,2.73288 1.09315,1.70046 1.09315,4.49408 0,2.9758 -1.82192,5.28357 -1.76119,2.30776 -5.16211,3.58311 -3.34019,1.27534 -8.07718,1.27534 z m 41.23619,-0.42511 v -6.49819 l -0.48585,-1.3968 v -11.41737 q 0,-3.158 -1.94338,-4.91919 -1.94338,-1.82192 -5.89088,-1.82192 -2.67215,0 -5.22284,0.85023 -2.55069,0.85023 -4.37261,2.30776 l -3.15799,-6.07307 q 2.61142,-2.00411 6.31599,-2.9758 3.70457,-1.03242 7.59134,-1.03242 7.22695,0 11.23518,3.46165 4.00822,3.40092 4.00822,10.6886 v 18.82652 z m -10.02057,0.42511 q -3.7653,0 -6.49818,-1.27534 -2.73288,-1.27535 -4.19042,-3.46165 -1.45754,-2.24704 -1.45754,-5.04065 0,-2.85434 1.33608,-4.97992 1.39681,-2.1863 4.43334,-3.46165 3.03654,-1.27534 7.95572,-1.27534 h 9.04888 v 5.28357 h -8.25938 q -3.58311,0 -4.85845,1.15388 -1.27535,1.15389 -1.27535,2.91508 0,1.94338 1.51827,3.09726 1.51827,1.09315 4.19042,1.09315 2.61142,0 4.61553,-1.15388 2.06484,-1.21461 2.9758,-3.52238 l 1.33608,4.43334 q -1.03242,2.97581 -3.82603,4.61554 -2.73289,1.57899 -7.04477,1.57899 z m 27.20733,-0.42511 v -32.55166 h 8.19865 v 9.10961 l -1.09315,-2.67215 q 1.45753,-3.40092 4.61553,-5.10138 3.21873,-1.76119 7.83426,-1.76119 v 8.01645 q -0.54658,-0.0607 -1.03242,-0.12146 -0.42512,-0.0607 -0.91096,-0.0607 -4.12969,0 -6.61965,2.3685 -2.42923,2.36849 -2.42923,7.22695 v 15.54706 z m 43.36324,0 v -6.49819 l -0.48585,-1.3968 v -11.41737 q 0,-3.158 -1.94338,-4.91919 -1.94338,-1.82192 -5.89088,-1.82192 -2.67215,0 -5.22284,0.85023 -2.55069,0.85023 -4.37261,2.30776 l -3.15799,-6.07307 q 2.61142,-2.00411 6.31599,-2.9758 3.70457,-1.03242 7.59134,-1.03242 7.22695,0 11.23518,3.46165 4.00822,3.40092 4.00822,10.6886 v 18.82652 z m -10.02057,0.42511 q -3.7653,0 -6.49818,-1.27534 -2.73288,-1.27535 -4.19042,-3.46165 -1.45754,-2.24704 -1.45754,-5.04065 0,-2.85434 1.33608,-4.97992 1.39681,-2.1863 4.43334,-3.46165 3.03654,-1.27534 7.95572,-1.27534 h 9.04888 v 5.28357 h -8.25938 q -3.58311,0 -4.85845,1.15388 -1.27535,1.15389 -1.27535,2.91508 0,1.94338 1.51827,3.09726 1.51827,1.09315 4.19042,1.09315 2.61142,0 4.61553,-1.15388 2.06484,-1.21461 2.9758,-3.52238 l 1.33608,4.43334 q -1.03242,2.97581 -3.82603,4.61554 -2.73289,1.57899 -7.04477,1.57899 z"
       id="text9"
       style="font-size:60.7307px;font-family:Montserrat;-inkscape-font-specification:'Montserrat, @wght=652';font-variation-settings:'wght' 652;fill:#4781be;stroke-width:3.12683"
       transform="scale(1.0516104,0.9509225)"
       aria-label="'sara" /></g></svg>
